<svg width="72" height="72" viewBox="0 0 72 72" fill="none" xmlns="http://www.w3.org/2000/svg">
<path d="M53.999 38.9939H38.999V53.9939C38.999 54.7895 38.683 55.5526 38.1203 56.1152C37.5577 56.6778 36.7947 56.9939 35.999 56.9939C35.2034 56.9939 34.4403 56.6778 33.8777 56.1152C33.3151 55.5526 32.999 54.7895 32.999 53.9939V38.9939H17.999C17.2034 38.9939 16.4403 38.6778 15.8777 38.1152C15.3151 37.5526 14.999 36.7895 14.999 35.9939C14.999 35.1982 15.3151 34.4352 15.8777 33.8726C16.4403 33.31 17.2034 32.9939 17.999 32.9939H32.999V17.9939C32.999 17.1982 33.3151 16.4352 33.8777 15.8726C34.4403 15.31 35.2034 14.9939 35.999 14.9939C36.7947 14.9939 37.5577 15.31 38.1203 15.8726C38.683 16.4352 38.999 17.1982 38.999 17.9939V32.9939H53.999C54.7947 32.9939 55.5577 33.31 56.1203 33.8726C56.683 34.4352 56.999 35.1982 56.999 35.9939C56.999 36.7895 56.683 37.5526 56.1203 38.1152C55.5577 38.6778 54.7947 38.9939 53.999 38.9939Z" fill="#AFB3C0"/>
</svg>
