<svg width="55" height="56" viewBox="0 0 55 56" fill="none" xmlns="http://www.w3.org/2000/svg">
<path d="M13.1018 21.8129C13.2739 14.1975 19.8946 8.14601 27.8594 8.32607C35.8242 8.50613 42.1647 14.8506 41.9925 22.466C41.9105 26.0945 40.1484 30.8801 36.7606 36.6903C34.0356 41.3565 30.9073 45.5611 29.2865 47.6517C29.012 48.009 28.6573 48.2966 28.251 48.4911C27.8446 48.6857 27.3982 48.7818 26.9478 48.7716C26.4974 48.7614 26.0558 48.6453 25.6586 48.4325C25.2615 48.2198 24.9201 47.9165 24.6621 47.5472C23.1348 45.3854 20.2023 41.0438 17.6909 36.2592C14.5639 30.2999 13.0198 25.4396 13.1018 21.8129Z" fill="#FF7246"/>
<circle cx="27.4024" cy="22.2403" r="6.92487" fill="#F75725"/>
</svg>
