<svg width="100" height="100" viewBox="0 0 100 100" fill="none" xmlns="http://www.w3.org/2000/svg">
<path d="M87.5 51.3394C87.5 41.3937 83.5491 31.8555 76.5165 24.8229C69.4839 17.7902 59.9456 13.8394 50 13.8394C40.0544 13.8394 30.5161 17.7902 23.4835 24.8228C16.4509 31.8555 12.5 41.3937 12.5 51.3394L50 51.3394L87.5 51.3394Z" fill="#A3B6F9" stroke="#466DF4" stroke-width="7.8125" stroke-linejoin="round"/>
<path d="M49.9992 13.8391C44.642 15.6248 33.9277 25.6248 33.9277 51.3391" stroke="#466DF4" stroke-width="7.8125"/>
<path d="M49.9999 13.8394C55.357 15.6251 66.0713 25.6251 66.0713 51.3394" stroke="#466DF4" stroke-width="7.8125"/>
<path d="M50 13.8393L50 8.48218" stroke="#466DF4" stroke-width="7.8125" stroke-linecap="round"/>
<path d="M50 51.3394V83.4822" stroke="#466DF4" stroke-width="7.8125" stroke-linecap="round"/>
<path d="M34.5403 86.5572C34.9441 87.5322 35.536 88.418 36.2822 89.1642C37.0284 89.9104 37.9142 90.5023 38.8892 90.9061C39.8641 91.31 40.909 91.5178 41.9643 91.5178C43.0196 91.5178 44.0645 91.31 45.0394 90.9061C46.0144 90.5023 46.9002 89.9104 47.6464 89.1642C48.3926 88.418 48.9845 87.5322 49.3883 86.5572C49.7922 85.5823 50 84.5374 50 83.4821" stroke="#466DF4" stroke-width="7.8125" stroke-linecap="round"/>
</svg>
