<svg width="192" height="192" viewBox="0 0 192 192" fill="none" xmlns="http://www.w3.org/2000/svg">
<ellipse cx="91.9785" cy="163" rx="73.5" ry="10" fill="#F24914"/>
<path d="M98.4629 123.119L98.2604 38.9607" stroke="#F75725" stroke-width="8.70924" stroke-linecap="round"/>
<path d="M117.3 35.1258C116.8 33.9257 116.068 32.836 115.146 31.9188C114.225 31.0017 113.131 30.275 111.929 29.7803C110.727 29.2856 109.439 29.0326 108.138 29.0358C106.838 29.0389 105.551 29.2981 104.351 29.7985C103.151 30.299 102.061 31.0309 101.144 31.9525C100.227 32.8741 99.5004 33.9674 99.0057 35.1698C98.511 36.3722 98.258 37.6603 98.2611 38.9606" stroke="#F75725" stroke-width="8.70924" stroke-linecap="round"/>
<path d="M98.4636 123.119L123.049 53.7529L110.685 58.7332L98.2969 53.8125" stroke="#F75725" stroke-width="8.70924" stroke-linecap="round" stroke-linejoin="round"/>
<path d="M98.4636 123.119L73.5444 53.8721L85.9325 58.7928L98.2969 53.8125" stroke="#F75725" stroke-width="8.70924" stroke-linecap="round" stroke-linejoin="round"/>
<path d="M88.862 91.3932L77.7607 59.918L97.472 56.3095L97.6699 66.5995L88.862 91.3932Z" fill="#F75725" stroke="#F75725" stroke-width="9.1252" stroke-linecap="round" stroke-linejoin="round"/>
<path d="M112.296 90.7125L119.203 58.0557L98.8053 57.0239L92.6686 80.6009L112.296 90.7125Z" fill="#F75725"/>
<path d="M58.2265 75.4684C58.1302 72.5217 60.5951 70.1338 63.5374 70.3235L132.268 74.7555C135.21 74.9452 137.348 77.6299 136.874 80.5399L124.512 156.45C124.099 158.987 121.827 160.795 119.263 160.63L65.4053 157.157C62.8408 156.992 60.8208 154.906 60.7369 152.338L58.2265 75.4684Z" fill="#F75725"/>
<path d="M59.2666 83.3892L134.826 88.2615" stroke="#F24914" stroke-width="4.9923" stroke-linecap="round"/>
<path d="M59.8691 93.4331L132.938 98.1448" stroke="#F24914" stroke-width="4.9923" stroke-linecap="round"/>
<path d="M61.4248 146.895L124.53 150.964" stroke="#F24914" stroke-width="4.9923" stroke-linecap="round"/>
<path d="M28.9864 39.5538C26.3079 34.0801 28.7859 27.3459 34.5107 24.5445C40.2355 21.7432 47.0735 23.9187 49.7519 29.3924C51.0281 32.0004 51.5363 36.0484 51.2663 41.4222C51.0465 45.7395 50.3703 49.8772 49.9877 51.9586C49.9242 52.3133 49.7779 52.6481 49.5608 52.9358C49.3437 53.2235 49.0618 53.4559 48.7381 53.6143C48.4144 53.7727 48.0579 53.8526 47.6975 53.8475C47.3372 53.8425 46.9831 53.7525 46.6639 53.585C44.7837 52.6109 41.1037 50.6049 37.5598 48.1293C33.1464 45.0457 30.2619 42.1605 28.9864 39.5538Z" fill="#F75725" stroke="#F75725" stroke-width="2.87006"/>
<circle cx="39.0418" cy="34.0497" r="5.5399" transform="rotate(-27.3693 39.0418 34.0497)" fill="#FF7246"/>
<path d="M147.685 113.096C150.537 107.711 157.44 105.754 163.073 108.737C168.706 111.719 170.968 118.529 168.116 123.914C166.758 126.48 163.783 129.272 159.278 132.214C155.657 134.576 151.913 136.462 150.004 137.377C149.68 137.534 149.323 137.613 148.963 137.607C148.602 137.6 148.249 137.509 147.93 137.34C147.612 137.172 147.337 136.93 147.13 136.636C146.922 136.341 146.786 136.002 146.734 135.646C146.416 133.552 145.874 129.396 145.792 125.074C145.69 119.691 146.327 115.661 147.685 113.096Z" fill="#F75725" stroke="#F75725" stroke-width="2.87006"/>
<circle cx="158.05" cy="117.991" r="5.5399" transform="rotate(26.6056 158.05 117.991)" fill="#FF7246"/>
</svg>
