<svg width="192" height="192" viewBox="0 0 192 192" fill="none" xmlns="http://www.w3.org/2000/svg">
<path fill-rule="evenodd" clip-rule="evenodd" d="M84.0804 13.15C82.6352 9.2682 78.3168 7.29295 74.4349 8.73817C70.5531 10.1834 68.5778 14.5018 70.0231 18.3837L71.1186 21.3262C54.5437 29.3501 41.1898 42.9257 33.4655 59.813C24.6952 78.9871 23.901 100.86 31.2576 120.62C31.9517 122.484 33.3578 123.996 35.1667 124.823C36.9755 125.651 39.039 125.725 40.9031 125.031L101.35 102.527L120.227 153.231C120.24 153.265 120.252 153.3 120.265 153.334C120.628 154.31 120.796 155.348 120.758 156.388C120.72 157.429 120.478 158.452 120.045 159.399C119.612 160.345 118.996 161.198 118.234 161.907C117.471 162.616 116.577 163.168 115.601 163.531C114.625 163.894 113.587 164.062 112.547 164.024C111.506 163.986 110.484 163.744 109.537 163.311C108.59 162.878 107.738 162.262 107.029 161.5C104.208 158.467 99.4622 158.294 96.4289 161.115C93.3957 163.936 93.2233 168.681 96.0441 171.715C98.0945 173.92 100.559 175.699 103.297 176.952C106.036 178.204 108.994 178.905 112.003 179.014C115.012 179.123 118.013 178.639 120.835 177.588C123.656 176.538 126.244 174.942 128.449 172.891C130.654 170.841 132.433 168.376 133.686 165.638C134.938 162.9 135.639 159.942 135.748 156.933C135.856 153.969 135.387 151.012 134.369 148.227C134.354 148.185 134.339 148.143 134.323 148.1L115.407 97.2932L175.854 74.7887C177.718 74.0947 179.23 72.6885 180.057 70.8797C180.885 69.0708 180.96 67.0073 180.266 65.1432C172.909 45.3835 158.004 29.3555 138.83 20.5853C121.943 12.861 102.962 11.3237 85.1759 16.0926L84.0804 13.15Z" fill="white" fill-opacity="0.5"/>
</svg>
