<svg width="33" height="32" viewBox="0 0 33 32" fill="none" xmlns="http://www.w3.org/2000/svg">
<g clip-path="url(#clip0_278_352)">
<path d="M6.76465 11.5321C6.76465 6.22396 11.2818 1.90381 16.8335 1.90381C22.3851 1.90381 26.9023 6.22396 26.9023 11.5321C26.9023 14.0613 25.75 17.423 23.4814 21.5241C21.6564 24.8179 19.5432 27.7964 18.447 29.2784C18.2614 29.5316 18.0188 29.7375 17.7388 29.8795C17.4588 30.0214 17.1493 30.0954 16.8353 30.0954C16.5214 30.0954 16.2119 30.0214 15.9319 29.8795C15.6519 29.7375 15.4093 29.5316 15.2237 29.2784C14.1256 27.7964 12.0143 24.8179 10.1893 21.5241C7.9169 17.4217 6.76465 14.06 6.76465 11.5321Z" stroke="#FFEAE3" stroke-width="2.5"/>
<circle cx="16.8932" cy="12.2975" r="3.82286" stroke="#FFEAE3" stroke-width="2.5"/>
</g>
<defs>
<clipPath id="clip0_278_352">
<rect width="32" height="32" fill="white" transform="translate(0.833008 -0.000488281)"/>
</clipPath>
</defs>
</svg>
