<svg width="49" height="48" viewBox="0 0 49 48" fill="none" xmlns="http://www.w3.org/2000/svg">
<path d="M31.7139 29.9535C31.9252 30.1648 32.0439 30.4515 32.0439 30.7504C32.0439 31.0493 31.9252 31.3359 31.7139 31.5472C31.5025 31.7586 31.2159 31.8773 30.917 31.8773C30.6181 31.8773 30.3315 31.7586 30.1201 31.5472L24.1679 25.5932L18.2139 31.5454C18.0025 31.7567 17.7159 31.8754 17.417 31.8754C17.1181 31.8754 16.8315 31.7567 16.6201 31.5454C16.4088 31.334 16.29 31.0474 16.29 30.7485C16.29 30.4496 16.4088 30.163 16.6201 29.9516L22.5742 23.9994L16.622 18.0454C16.4106 17.834 16.2919 17.5474 16.2919 17.2485C16.2919 16.9496 16.4106 16.663 16.622 16.4516C16.8333 16.2403 17.12 16.1215 17.4189 16.1215C17.7178 16.1215 18.0044 16.2403 18.2157 16.4516L24.1679 22.4057L30.122 16.4507C30.3333 16.2393 30.62 16.1206 30.9189 16.1206C31.2178 16.1206 31.5044 16.2393 31.7157 16.4507C31.9271 16.662 32.0458 16.9487 32.0458 17.2476C32.0458 17.5464 31.9271 17.8331 31.7157 18.0444L25.7617 23.9994L31.7139 29.9535Z" fill="#73798D"/>
</svg>
