<svg width="20" height="20" viewBox="0 0 20 20" fill="none" xmlns="http://www.w3.org/2000/svg">
<path d="M16.2887 14.9617C16.4649 15.1379 16.5638 15.3767 16.5638 15.6258C16.5638 15.8749 16.4649 16.1137 16.2887 16.2899C16.1126 16.466 15.8737 16.5649 15.6247 16.5649C15.3756 16.5649 15.1367 16.466 14.9606 16.2899L10.0005 11.3281L5.03874 16.2883C4.86261 16.4644 4.62374 16.5634 4.37467 16.5634C4.1256 16.5634 3.88673 16.4644 3.71061 16.2883C3.53449 16.1122 3.43555 15.8733 3.43555 15.6242C3.43555 15.3752 3.53449 15.1363 3.71061 14.9602L8.67233 10L3.71217 5.0383C3.53605 4.86218 3.43711 4.62331 3.43711 4.37423C3.43711 4.12516 3.53605 3.88629 3.71217 3.71017C3.88829 3.53405 4.12716 3.43511 4.37624 3.43511C4.62531 3.43511 4.86418 3.53405 5.0403 3.71017L10.0005 8.67189L14.9622 3.70939C15.1383 3.53327 15.3772 3.43433 15.6262 3.43433C15.8753 3.43433 16.1142 3.53327 16.2903 3.70939C16.4664 3.88551 16.5654 4.12438 16.5654 4.37345C16.5654 4.62252 16.4664 4.86139 16.2903 5.03751L11.3286 10L16.2887 14.9617Z" fill="#73798D"/>
</svg>
