<svg width="33" height="32" viewBox="0 0 33 32" fill="none" xmlns="http://www.w3.org/2000/svg">
<path d="M28.5 16.4282C28.5 13.2456 27.2357 10.1934 24.9853 7.94294C22.7348 5.69251 19.6826 4.42822 16.5 4.42822C13.3174 4.42822 10.2652 5.6925 8.01472 7.94294C5.76428 10.1934 4.5 13.2456 4.5 16.4282L16.5 16.4282H28.5Z" stroke="#466DF4" stroke-width="2.5" stroke-linejoin="round"/>
<path d="M16.5003 4.42822C14.786 4.99965 11.3574 8.19965 11.3574 16.4282" stroke="#466DF4" stroke-width="2.5"/>
<path d="M16.4997 4.42822C18.214 4.99965 21.6426 8.19965 21.6426 16.4282" stroke="#466DF4" stroke-width="2.5"/>
<path d="M16.5 4.42815L16.5 2.71387" stroke="#466DF4" stroke-width="2.5" stroke-linecap="round"/>
<path d="M16.5 16.4282V26.7139" stroke="#466DF4" stroke-width="2.5" stroke-linecap="round"/>
<path d="M11.5529 27.698C11.6821 28.01 11.8715 28.2935 12.1103 28.5322C12.3491 28.771 12.6325 28.9604 12.9445 29.0897C13.2565 29.2189 13.5909 29.2854 13.9286 29.2854C14.2663 29.2854 14.6006 29.2189 14.9126 29.0897C15.2246 28.9604 15.5081 28.771 15.7468 28.5322C15.9856 28.2935 16.175 28.01 16.3043 27.698C16.4335 27.386 16.5 27.0517 16.5 26.714" stroke="#466DF4" stroke-width="2.5" stroke-linecap="round"/>
</svg>
